<?xml version="1.0" encoding="UTF-8" standalone="no"?>
<!-- Generator: Adobe Illustrator 19.0.0, SVG Export Plug-In . SVG Version: 6.00 Build 0)  -->

<svg
   xmlns:dc="http://purl.org/dc/elements/1.1/"
   xmlns:cc="http://creativecommons.org/ns#"
   xmlns:rdf="http://www.w3.org/1999/02/22-rdf-syntax-ns#"
   xmlns:svg="http://www.w3.org/2000/svg"
   xmlns="http://www.w3.org/2000/svg"
   xmlns:sodipodi="http://sodipodi.sourceforge.net/DTD/sodipodi-0.dtd"
   xmlns:inkscape="http://www.inkscape.org/namespaces/inkscape"
   version="1.1"
   id="Capa_1"
   x="0px"
   y="0px"
   viewBox="0 0 512 512"
   style="enable-background:new 0 0 512 512;"
   xml:space="preserve"
   sodipodi:docname="instruments.svg"
   inkscape:version="0.92.5 (2060ec1f9f, 2020-04-08)"><metadata
   id="metadata61"><rdf:RDF><cc:Work
       rdf:about=""><dc:format>image/svg+xml</dc:format><dc:type
         rdf:resource="http://purl.org/dc/dcmitype/StillImage" /></cc:Work></rdf:RDF></metadata><defs
   id="defs59" /><sodipodi:namedview
   pagecolor="#ffffff"
   bordercolor="#666666"
   borderopacity="1"
   objecttolerance="10"
   gridtolerance="10"
   guidetolerance="10"
   inkscape:pageopacity="0"
   inkscape:pageshadow="2"
   inkscape:window-width="772"
   inkscape:window-height="480"
   id="namedview57"
   showgrid="false"
   inkscape:zoom="0.4609375"
   inkscape:cx="256"
   inkscape:cy="256"
   inkscape:window-x="787"
   inkscape:window-y="197"
   inkscape:window-maximized="0"
   inkscape:current-layer="Capa_1" />
<g
   id="g6">
	<g
   id="g4">
		<path
   d="M420.142,318.045c-9.649-2.227-21.66-4.997-35.451-18.787c-13.79-13.791-16.561-25.801-18.786-35.451    c-1.844-7.994-3.062-13.275-10.768-20.981c-7.704-7.705-12.984-8.921-20.978-10.765c-9.649-2.225-21.66-4.994-35.449-18.783    c-13.79-13.79-16.56-25.8-18.784-35.45c-1.844-7.994-3.062-13.273-10.765-20.978c-7.704-7.704-12.984-8.922-20.978-10.764    c-9.649-2.225-21.659-4.994-35.448-18.783c-13.789-13.789-16.559-25.798-18.783-35.449c-0.804-3.485-1.488-6.454-2.642-9.33    c-24.081,25.425-42.767,54.278-54.947,84.47l208.643,208.642c30.193-12.179,59.044-30.866,84.471-54.947    C426.598,319.533,423.628,318.849,420.142,318.045z"
   id="path2"
   style="fill:#7e7e7e;fill-opacity:1" />
	</g>
</g>
<g
   id="g12">
	<g
   id="g10">
		<path
   d="M287.077,16.28c-25.832,10.42-50.684,25.605-73.249,44.854c5.911,9.049,7.773,17.114,9.355,23.98    c1.844,7.993,3.061,13.273,10.764,20.977c7.704,7.704,12.983,8.92,20.977,10.763c9.649,2.225,21.66,4.994,35.449,18.784    c13.79,13.79,16.56,25.799,18.784,35.45c1.844,7.994,3.062,13.273,10.765,20.978c7.704,7.704,12.984,8.92,20.978,10.764    c9.649,2.225,21.66,4.994,35.449,18.784c13.791,13.791,16.561,25.8,18.787,35.451c1.844,7.995,3.062,13.275,10.767,20.981    c7.706,7.706,12.987,8.923,20.981,10.767c6.867,1.584,14.932,3.447,23.983,9.359c19.249-22.565,34.434-47.416,44.854-73.25    L287.077,16.28z"
   id="path8"
   style="fill:#7e7e7e;fill-opacity:1" />
	</g>
</g>
<g
   id="g18"
   style="fill:#7e7e7e;fill-opacity:1">
	<g
   id="g16"
   style="fill:#7e7e7e;fill-opacity:1">
		<path
   d="M126.024,199.076c-1.641,6.756-2.962,13.539-3.932,20.331c-4.688,32.832-1.11,63.41,10.114,89.64L14.652,426.602    C5.204,436.05,0,448.613,0,461.975s5.204,25.924,14.652,35.373C24.1,506.796,36.663,512,50.025,512    c13.361,0,25.924-5.204,35.373-14.652l117.56-117.561c18.709,8.006,39.626,12.128,62,12.128c8.991,0,18.223-0.665,27.634-2.008    c6.792-0.97,13.575-2.291,20.332-3.932L126.024,199.076z"
   id="path14"
   style="fill:#7e7e7e;fill-opacity:1" />
	</g>
</g>
<g
   id="g24">
	<g
   id="g22">
		<path
   d="M471.371,40.627C438.954,8.21,392.12-5.505,339.492,2.009c-6.792,0.97-13.576,2.291-20.332,3.932l186.899,186.899    c1.641-6.756,2.962-13.54,3.932-20.332C517.505,119.881,503.789,73.044,471.371,40.627z"
   id="path20"
   style="fill:#7e7e7e;fill-opacity:1" />
	</g>
</g>
<g
   id="g26">
</g>
<g
   id="g28">
</g>
<g
   id="g30">
</g>
<g
   id="g32">
</g>
<g
   id="g34">
</g>
<g
   id="g36">
</g>
<g
   id="g38">
</g>
<g
   id="g40">
</g>
<g
   id="g42">
</g>
<g
   id="g44">
</g>
<g
   id="g46">
</g>
<g
   id="g48">
</g>
<g
   id="g50">
</g>
<g
   id="g52">
</g>
<g
   id="g54">
</g>
</svg>