<?xml version="1.0" encoding="UTF-8" standalone="no"?>
<!-- Generator: Adobe Illustrator 19.0.0, SVG Export Plug-In . SVG Version: 6.00 Build 0)  -->

<svg
   xmlns:dc="http://purl.org/dc/elements/1.1/"
   xmlns:cc="http://creativecommons.org/ns#"
   xmlns:rdf="http://www.w3.org/1999/02/22-rdf-syntax-ns#"
   xmlns:svg="http://www.w3.org/2000/svg"
   xmlns="http://www.w3.org/2000/svg"
   xmlns:sodipodi="http://sodipodi.sourceforge.net/DTD/sodipodi-0.dtd"
   xmlns:inkscape="http://www.inkscape.org/namespaces/inkscape"
   version="1.1"
   id="Capa_1"
   x="0px"
   y="0px"
   viewBox="0 0 480 480"
   style="enable-background:new 0 0 480 480;"
   xml:space="preserve"
   sodipodi:docname="piano.svg"
   inkscape:version="0.92.5 (2060ec1f9f, 2020-04-08)"><metadata
   id="metadata39"><rdf:RDF><cc:Work
       rdf:about=""><dc:format>image/svg+xml</dc:format><dc:type
         rdf:resource="http://purl.org/dc/dcmitype/StillImage" /></cc:Work></rdf:RDF></metadata><defs
   id="defs37" /><sodipodi:namedview
   pagecolor="#ffffff"
   bordercolor="#666666"
   borderopacity="1"
   objecttolerance="10"
   gridtolerance="10"
   guidetolerance="10"
   inkscape:pageopacity="0"
   inkscape:pageshadow="2"
   inkscape:window-width="772"
   inkscape:window-height="480"
   id="namedview35"
   showgrid="false"
   inkscape:zoom="0.49166667"
   inkscape:cx="13.220339"
   inkscape:cy="240"
   inkscape:window-x="72"
   inkscape:window-y="26"
   inkscape:window-maximized="0"
   inkscape:current-layer="Capa_1" />
<path
   d="M448,48H32C14.368,48,0,62.368,0,80v320c0,17.664,14.368,32,32,32h416c17.664,0,32-14.336,32-32V80  C480,62.368,465.664,48,448,48z M144,272c8.832,0,16-7.168,16-16V80h32v176c0,8.832,7.168,16,16,16h16v128h-96V272H144z M256,272h16  c8.832,0,16-7.168,16-16V80h32v176c0,8.832,7.168,16,16,16h16v128h-96V272z M32,80h32v176c0,8.832,7.168,16,16,16h16v128H32V80z   M448,416v-16h-64V272h16c8.832,0,16-7.168,16-16V80h32v320h0.032L448,416z"
   id="path2"
   style="fill:#7e7e7e;fill-opacity:1" />
<g
   id="g4"
   style="fill:#7e7e7e;fill-opacity:1">
</g>
<g
   id="g6"
   style="fill:#7e7e7e;fill-opacity:1">
</g>
<g
   id="g8"
   style="fill:#7e7e7e;fill-opacity:1">
</g>
<g
   id="g10"
   style="fill:#7e7e7e;fill-opacity:1">
</g>
<g
   id="g12"
   style="fill:#7e7e7e;fill-opacity:1">
</g>
<g
   id="g14"
   style="fill:#7e7e7e;fill-opacity:1">
</g>
<g
   id="g16"
   style="fill:#7e7e7e;fill-opacity:1">
</g>
<g
   id="g18"
   style="fill:#7e7e7e;fill-opacity:1">
</g>
<g
   id="g20"
   style="fill:#7e7e7e;fill-opacity:1">
</g>
<g
   id="g22"
   style="fill:#7e7e7e;fill-opacity:1">
</g>
<g
   id="g24"
   style="fill:#7e7e7e;fill-opacity:1">
</g>
<g
   id="g26"
   style="fill:#7e7e7e;fill-opacity:1">
</g>
<g
   id="g28"
   style="fill:#7e7e7e;fill-opacity:1">
</g>
<g
   id="g30"
   style="fill:#7e7e7e;fill-opacity:1">
</g>
<g
   id="g32"
   style="fill:#7e7e7e;fill-opacity:1">
</g>
</svg>