<?xml version="1.0" encoding="UTF-8" standalone="no"?>
<svg
   xmlns:dc="http://purl.org/dc/elements/1.1/"
   xmlns:cc="http://creativecommons.org/ns#"
   xmlns:rdf="http://www.w3.org/1999/02/22-rdf-syntax-ns#"
   xmlns:svg="http://www.w3.org/2000/svg"
   xmlns="http://www.w3.org/2000/svg"
   xmlns:sodipodi="http://sodipodi.sourceforge.net/DTD/sodipodi-0.dtd"
   xmlns:inkscape="http://www.inkscape.org/namespaces/inkscape"
   id="Layer_1"
   enable-background="new 0 0 512.687 512.687"
   height="512"
   viewBox="0 0 512.687 512.687"
   width="512"
   version="1.1"
   sodipodi:docname="regular.svg"
   inkscape:version="0.92.5 (2060ec1f9f, 2020-04-08)">
  <metadata
     id="metadata13">
    <rdf:RDF>
      <cc:Work
         rdf:about="">
        <dc:format>image/svg+xml</dc:format>
        <dc:type
           rdf:resource="http://purl.org/dc/dcmitype/StillImage" />
      </cc:Work>
    </rdf:RDF>
  </metadata>
  <defs
     id="defs11" />
  <sodipodi:namedview
     pagecolor="#ffffff"
     bordercolor="#666666"
     borderopacity="1"
     objecttolerance="10"
     gridtolerance="10"
     guidetolerance="10"
     inkscape:pageopacity="0"
     inkscape:pageshadow="2"
     inkscape:window-width="772"
     inkscape:window-height="480"
     id="namedview9"
     showgrid="false"
     inkscape:zoom="0.4609375"
     inkscape:cx="256"
     inkscape:cy="256"
     inkscape:window-x="72"
     inkscape:window-y="26"
     inkscape:window-maximized="0"
     inkscape:current-layer="Layer_1" />
  <g
     id="g6"
     style="fill:#7e7e7e;fill-opacity:1">
    <ellipse
       cx="177.088"
       cy="315.392"
       rx="15.23"
       ry="14.035"
       id="ellipse2"
       style="fill:#7e7e7e;fill-opacity:1" />
    <path
       d="m388.401 227.882c-44.509 0-80.72 36.21-80.72 80.719v132.289c0 23.047-18.75 41.797-41.797 41.797h-36.908c-16.227 0-30.046-10.468-35.085-25.003 20.429-7.081 35.142-26.506 35.142-49.314v-13.612h3.692c7.564 0 13.945-5.632 14.884-13.139l18.595-148.681c16.842-15.112 29.837-34.427 37.312-56.283 1.06-1.84 1.741-3.922 1.936-6.148 3.387-11.743 5.207-24.144 5.207-36.962 0-73.637-59.908-133.545-133.546-133.545s-133.546 59.908-133.546 133.545c0 41.306 18.852 78.289 48.402 102.805l13.979 144.849c.742 7.69 7.204 13.559 14.931 13.559h3.781v13.612c0 24.037 16.34 44.318 38.491 50.351 6.136 30.733 33.315 53.966 65.825 53.966h36.908c39.589 0 71.797-32.208 71.797-71.797v-132.289c0-27.966 22.753-50.719 50.72-50.719s50.719 22.752 50.719 50.719v187.78c0 8.284 6.716 15 15 15s15-6.716 15-15v-187.78c0-44.509-36.21-80.719-80.719-80.719zm-301.574-43.692h180.572c-17.765 31.545-51.576 52.901-90.286 52.901s-72.521-21.356-90.286-52.901zm193.832-50.645c0 7.068-.714 13.971-2.07 20.645h-202.952c-1.356-6.674-2.07-13.577-2.07-20.645s.714-13.971 2.07-20.645h202.953c1.355 6.674 2.069 13.578 2.069 20.645zm-103.546-103.545c38.71 0 72.521 21.356 90.286 52.901h-180.572c17.765-31.545 51.576-52.901 90.286-52.901zm0 237.091c20.041 0 39.06-4.446 56.137-12.39l-13.765 110.057c-3.995.026-83.771-.044-84.984 0l-10.49-108.691c16.284 7.086 34.24 11.024 53.102 11.024zm-22.453 141.28v-13.612h44.374v13.612c0 12.234-9.953 22.187-22.188 22.187-12.233 0-22.186-9.954-22.186-22.187z"
       id="path4"
       style="fill:#7e7e7e;fill-opacity:1" />
  </g>
</svg>
