<?xml version="1.0" encoding="UTF-8" standalone="no"?>
<!-- Generator: Adobe Illustrator 19.0.0, SVG Export Plug-In . SVG Version: 6.00 Build 0)  -->

<svg
   xmlns:dc="http://purl.org/dc/elements/1.1/"
   xmlns:cc="http://creativecommons.org/ns#"
   xmlns:rdf="http://www.w3.org/1999/02/22-rdf-syntax-ns#"
   xmlns:svg="http://www.w3.org/2000/svg"
   xmlns="http://www.w3.org/2000/svg"
   xmlns:sodipodi="http://sodipodi.sourceforge.net/DTD/sodipodi-0.dtd"
   xmlns:inkscape="http://www.inkscape.org/namespaces/inkscape"
   version="1.1"
   id="Capa_1"
   x="0px"
   y="0px"
   viewBox="0 0 415.963 415.963"
   style="enable-background:new 0 0 415.963 415.963;"
   xml:space="preserve"
   sodipodi:docname="singlehit.svg"
   inkscape:version="0.92.5 (2060ec1f9f, 2020-04-08)"><metadata
   id="metadata39"><rdf:RDF><cc:Work
       rdf:about=""><dc:format>image/svg+xml</dc:format><dc:type
         rdf:resource="http://purl.org/dc/dcmitype/StillImage" /></cc:Work></rdf:RDF></metadata><defs
   id="defs37" /><sodipodi:namedview
   pagecolor="#ffffff"
   bordercolor="#666666"
   borderopacity="1"
   objecttolerance="10"
   gridtolerance="10"
   guidetolerance="10"
   inkscape:pageopacity="0"
   inkscape:pageshadow="2"
   inkscape:window-width="772"
   inkscape:window-height="480"
   id="namedview35"
   showgrid="false"
   inkscape:zoom="0.56735814"
   inkscape:cx="207.98151"
   inkscape:cy="207.98151"
   inkscape:window-x="72"
   inkscape:window-y="26"
   inkscape:window-maximized="0"
   inkscape:current-layer="Capa_1" />
<path
   d="M340.681,135.739c-13.152-26.976-35.744-42.112-57.568-56.736c-16.288-10.912-31.68-21.216-42.56-35.936l-1.952-2.624  c-6.432-8.64-13.696-18.432-14.848-26.656c-1.152-8.32-8.704-14.24-16.96-13.76c-8.384,0.576-14.88,7.52-14.88,15.936v285.12  c-13.408-8.128-29.92-13.12-48-13.12c-44.096,0-80,28.704-80,64s35.904,64,80,64s80-28.704,80-64V72.955  c12.544,13.312,27.136,23.104,41.376,32.64c19.168,12.832,37.28,24.96,46.656,44.192c5.888,12,8.704,25.088,8,36.736  c-1.76,28.512-12.512,57.184-28.032,74.88c-5.856,6.624-5.216,16.736,1.44,22.56c6.592,5.888,16.704,5.184,22.56-1.44  c20.032-22.752,33.824-58.784,35.968-94.016C352.936,171.131,349.065,152.891,340.681,135.739z"
   id="path2"
   style="fill:#7e7e7e;fill-opacity:1" />
<g
   id="g4"
   style="fill:#7e7e7e;fill-opacity:1">
</g>
<g
   id="g6"
   style="fill:#7e7e7e;fill-opacity:1">
</g>
<g
   id="g8"
   style="fill:#7e7e7e;fill-opacity:1">
</g>
<g
   id="g10"
   style="fill:#7e7e7e;fill-opacity:1">
</g>
<g
   id="g12"
   style="fill:#7e7e7e;fill-opacity:1">
</g>
<g
   id="g14"
   style="fill:#7e7e7e;fill-opacity:1">
</g>
<g
   id="g16"
   style="fill:#7e7e7e;fill-opacity:1">
</g>
<g
   id="g18"
   style="fill:#7e7e7e;fill-opacity:1">
</g>
<g
   id="g20"
   style="fill:#7e7e7e;fill-opacity:1">
</g>
<g
   id="g22"
   style="fill:#7e7e7e;fill-opacity:1">
</g>
<g
   id="g24"
   style="fill:#7e7e7e;fill-opacity:1">
</g>
<g
   id="g26"
   style="fill:#7e7e7e;fill-opacity:1">
</g>
<g
   id="g28"
   style="fill:#7e7e7e;fill-opacity:1">
</g>
<g
   id="g30"
   style="fill:#7e7e7e;fill-opacity:1">
</g>
<g
   id="g32"
   style="fill:#7e7e7e;fill-opacity:1">
</g>
</svg>