<?xml version="1.0" encoding="UTF-8" standalone="no"?>
<!-- Generator: Adobe Illustrator 19.0.0, SVG Export Plug-In . SVG Version: 6.00 Build 0)  -->

<svg
   xmlns:dc="http://purl.org/dc/elements/1.1/"
   xmlns:cc="http://creativecommons.org/ns#"
   xmlns:rdf="http://www.w3.org/1999/02/22-rdf-syntax-ns#"
   xmlns:svg="http://www.w3.org/2000/svg"
   xmlns="http://www.w3.org/2000/svg"
   xmlns:sodipodi="http://sodipodi.sourceforge.net/DTD/sodipodi-0.dtd"
   xmlns:inkscape="http://www.inkscape.org/namespaces/inkscape"
   version="1.1"
   id="Capa_1"
   x="0px"
   y="0px"
   viewBox="0 0 512 512"
   style="enable-background:new 0 0 512 512;"
   xml:space="preserve"
   sodipodi:docname="synth.svg"
   inkscape:version="0.92.5 (2060ec1f9f, 2020-04-08)"><metadata
   id="metadata67"><rdf:RDF><cc:Work
       rdf:about=""><dc:format>image/svg+xml</dc:format><dc:type
         rdf:resource="http://purl.org/dc/dcmitype/StillImage" /></cc:Work></rdf:RDF></metadata><defs
   id="defs65" /><sodipodi:namedview
   pagecolor="#ffffff"
   bordercolor="#666666"
   borderopacity="1"
   objecttolerance="10"
   gridtolerance="10"
   guidetolerance="10"
   inkscape:pageopacity="0"
   inkscape:pageshadow="2"
   inkscape:window-width="772"
   inkscape:window-height="480"
   id="namedview63"
   showgrid="false"
   inkscape:zoom="0.4609375"
   inkscape:cx="256"
   inkscape:cy="256"
   inkscape:window-x="72"
   inkscape:window-y="26"
   inkscape:window-maximized="0"
   inkscape:current-layer="Capa_1" />
<g
   id="g6"
   style="fill:#7e7e7e;fill-opacity:1">
	<g
   id="g4"
   style="fill:#7e7e7e;fill-opacity:1">
		<path
   d="M407,120c-8.276,0-15,6.724-15,15s6.724,15,15,15s15-6.724,15-15S415.276,120,407,120z"
   id="path2"
   style="fill:#7e7e7e;fill-opacity:1" />
	</g>
</g>
<g
   id="g12"
   style="fill:#7e7e7e;fill-opacity:1">
	<g
   id="g10"
   style="fill:#7e7e7e;fill-opacity:1">
		<path
   d="M256,210c-8.276,0-15,6.724-15,15s6.724,15,15,15s15-6.724,15-15S264.276,210,256,210z"
   id="path8"
   style="fill:#7e7e7e;fill-opacity:1" />
	</g>
</g>
<g
   id="g18">
	<g
   id="g16">
		<path
   d="M467,0H45C20.186,0,0,20.186,0,45v317h512V45C512,20.186,491.814,0,467,0z M120,177.237V316c0,8.291-6.709,15-15,15    s-15-6.709-15-15V177.237C72.578,171.024,60,154.53,60,135c0-19.53,12.578-36.024,30-42.237V75c0-8.291,6.709-15,15-15    s15,6.709,15,15v17.763c17.422,6.213,30,22.707,30,42.237C150,154.53,137.422,171.024,120,177.237z M271,267.237V316    c0,8.291-6.709,15-15,15c-8.291,0-15-6.709-15-15v-48.763c-17.422-6.213-30-22.707-30-42.237c0-19.53,12.578-36.024,30-42.237V75    c0-8.291,6.709-15,15-15s15,6.709,15,15v107.763c17.422,6.213,30,22.707,30,42.237C301,244.53,288.422,261.024,271,267.237z     M422,177.237V316c0,8.291-6.709,15-15,15c-8.291,0-15-6.709-15-15V177.237c-17.422-6.213-30-22.707-30-42.237    c0-19.53,12.578-36.024,30-42.237V75c0-8.291,6.709-15,15-15c8.291,0,15,6.709,15,15v17.763c17.422,6.213,30,22.707,30,42.237    C452,154.53,439.422,171.024,422,177.237z"
   id="path14"
   style="fill:#7e7e7e;fill-opacity:1" />
	</g>
</g>
<g
   id="g24"
   style="fill:#7e7e7e;fill-opacity:1">
	<g
   id="g22"
   style="fill:#7e7e7e;fill-opacity:1">
		<path
   d="M105,120c-8.276,0-15,6.724-15,15s6.724,15,15,15s15-6.724,15-15S113.276,120,105,120z"
   id="path20"
   style="fill:#7e7e7e;fill-opacity:1" />
	</g>
</g>
<g
   id="g30">
	<g
   id="g28">
		<path
   d="M0,392v75c0,24.814,20.186,45,45,45h422c24.814,0,45-20.186,45-45v-75H0z M105,452H75c-8.291,0-15-6.709-15-15    c0-8.291,6.709-15,15-15h30c8.291,0,15,6.709,15,15C120,445.291,113.291,452,105,452z M196,452h-31c-8.291,0-15-6.709-15-15    c0-8.291,6.709-15,15-15h31c8.291,0,15,6.709,15,15C211,445.291,204.291,452,196,452z M286,452h-30c-8.291,0-15-6.709-15-15    c0-8.291,6.709-15,15-15h30c8.291,0,15,6.709,15,15C301,445.291,294.291,452,286,452z M376.971,452c-8.284,0-15-6.716-15-15    c0-8.286,6.716-15,15-15c8.286,0,15,6.714,15,15C391.971,445.284,385.257,452,376.971,452z M436.971,452c-8.284,0-15-6.716-15-15    c0-8.286,6.716-15,15-15c8.286,0,15,6.714,15,15C451.971,445.284,445.257,452,436.971,452z"
   id="path26"
   style="fill:#7e7e7e;fill-opacity:1" />
	</g>
</g>
<g
   id="g32">
</g>
<g
   id="g34">
</g>
<g
   id="g36">
</g>
<g
   id="g38">
</g>
<g
   id="g40">
</g>
<g
   id="g42">
</g>
<g
   id="g44">
</g>
<g
   id="g46">
</g>
<g
   id="g48">
</g>
<g
   id="g50">
</g>
<g
   id="g52">
</g>
<g
   id="g54">
</g>
<g
   id="g56">
</g>
<g
   id="g58">
</g>
<g
   id="g60">
</g>
</svg>