<?xml version="1.0" encoding="UTF-8" standalone="no"?>
<!-- Generator: Adobe Illustrator 16.0.0, SVG Export Plug-In . SVG Version: 6.00 Build 0)  -->

<svg
   xmlns:dc="http://purl.org/dc/elements/1.1/"
   xmlns:cc="http://creativecommons.org/ns#"
   xmlns:rdf="http://www.w3.org/1999/02/22-rdf-syntax-ns#"
   xmlns:svg="http://www.w3.org/2000/svg"
   xmlns="http://www.w3.org/2000/svg"
   xmlns:sodipodi="http://sodipodi.sourceforge.net/DTD/sodipodi-0.dtd"
   xmlns:inkscape="http://www.inkscape.org/namespaces/inkscape"
   version="1.1"
   id="Capa_1"
   x="0px"
   y="0px"
   width="319.467px"
   height="319.467px"
   viewBox="0 0 319.467 319.467"
   style="enable-background:new 0 0 319.467 319.467;"
   xml:space="preserve"
   sodipodi:docname="toploop.svg"
   inkscape:version="0.92.5 (2060ec1f9f, 2020-04-08)"><metadata
   id="metadata41"><rdf:RDF><cc:Work
       rdf:about=""><dc:format>image/svg+xml</dc:format><dc:type
         rdf:resource="http://purl.org/dc/dcmitype/StillImage" /></cc:Work></rdf:RDF></metadata><defs
   id="defs39" /><sodipodi:namedview
   pagecolor="#ffffff"
   bordercolor="#666666"
   borderopacity="1"
   objecttolerance="10"
   gridtolerance="10"
   guidetolerance="10"
   inkscape:pageopacity="0"
   inkscape:pageshadow="2"
   inkscape:window-width="772"
   inkscape:window-height="480"
   id="namedview37"
   showgrid="false"
   inkscape:zoom="0.73873042"
   inkscape:cx="159.73351"
   inkscape:cy="159.73351"
   inkscape:window-x="72"
   inkscape:window-y="26"
   inkscape:window-maximized="0"
   inkscape:current-layer="Capa_1" />
<g
   id="g4"
   style="fill:#7e7e7e;fill-opacity:1">
	<path
   d="M23.809,258.657l35.053-35.408C69.296,238.1,82.5,250.858,97.735,260.77l-28.192,39.281   c-4.153,6.131-3.061,14.022,2.438,17.632c5.497,3.609,13.318,1.569,17.477-4.562l26.968-42.107   c17.849,8.108,37.663,12.665,58.554,12.665c78.335,0,141.84-63.505,141.84-141.839C316.819,63.501,253.314,0,174.979,0   C96.642,0,33.14,63.501,33.14,141.839c0,22.598,5.308,43.941,14.708,62.904l-40.75,37.044c-5.359,5.137-5.965,13.08-1.351,17.74   C10.367,264.188,18.447,263.794,23.809,258.657z M54.35,141.839c0-66.513,54.117-120.63,120.629-120.63   c66.514,0,120.63,54.117,120.63,120.63c0,66.513-54.116,120.629-120.63,120.629c-16.66,0-32.542-3.396-46.983-9.527L230.365,93.066   c3.599-0.603,7.482-3.213,10.252-7.296c4.319-6.377,4.268-13.88-0.118-16.759c-4.392-2.879-11.444-0.049-15.768,6.331   c-2.849,4.205-3.754,8.87-2.817,12.407L110.141,243.485c-14.374-9.207-26.68-21.354-36.044-35.62L208.249,72.361   c3.646,0.143,8.006-1.608,11.578-5.03c5.577-5.352,7.115-12.702,3.434-16.417c-3.677-3.718-11.185-2.397-16.767,2.954   c-3.672,3.526-5.552,7.904-5.38,11.558L64.312,189.788C57.917,175.072,54.35,158.87,54.35,141.839z"
   id="path2"
   style="fill:#7e7e7e;fill-opacity:1" />
</g>
<g
   id="g6"
   style="fill:#7e7e7e;fill-opacity:1">
</g>
<g
   id="g8"
   style="fill:#7e7e7e;fill-opacity:1">
</g>
<g
   id="g10"
   style="fill:#7e7e7e;fill-opacity:1">
</g>
<g
   id="g12"
   style="fill:#7e7e7e;fill-opacity:1">
</g>
<g
   id="g14"
   style="fill:#7e7e7e;fill-opacity:1">
</g>
<g
   id="g16"
   style="fill:#7e7e7e;fill-opacity:1">
</g>
<g
   id="g18"
   style="fill:#7e7e7e;fill-opacity:1">
</g>
<g
   id="g20"
   style="fill:#7e7e7e;fill-opacity:1">
</g>
<g
   id="g22"
   style="fill:#7e7e7e;fill-opacity:1">
</g>
<g
   id="g24"
   style="fill:#7e7e7e;fill-opacity:1">
</g>
<g
   id="g26"
   style="fill:#7e7e7e;fill-opacity:1">
</g>
<g
   id="g28"
   style="fill:#7e7e7e;fill-opacity:1">
</g>
<g
   id="g30"
   style="fill:#7e7e7e;fill-opacity:1">
</g>
<g
   id="g32"
   style="fill:#7e7e7e;fill-opacity:1">
</g>
<g
   id="g34"
   style="fill:#7e7e7e;fill-opacity:1">
</g>
</svg>