<?xml version="1.0" encoding="UTF-8" standalone="no"?>
<svg
   xmlns:dc="http://purl.org/dc/elements/1.1/"
   xmlns:cc="http://creativecommons.org/ns#"
   xmlns:rdf="http://www.w3.org/1999/02/22-rdf-syntax-ns#"
   xmlns:svg="http://www.w3.org/2000/svg"
   xmlns="http://www.w3.org/2000/svg"
   xmlns:sodipodi="http://sodipodi.sourceforge.net/DTD/sodipodi-0.dtd"
   xmlns:inkscape="http://www.inkscape.org/namespaces/inkscape"
   id="Solid"
   height="512"
   viewBox="0 0 512 512"
   width="512"
   version="1.1"
   sodipodi:docname="vocoder.svg"
   inkscape:version="0.92.5 (2060ec1f9f, 2020-04-08)">
  <metadata
     id="metadata35">
    <rdf:RDF>
      <cc:Work
         rdf:about="">
        <dc:format>image/svg+xml</dc:format>
        <dc:type
           rdf:resource="http://purl.org/dc/dcmitype/StillImage" />
      </cc:Work>
    </rdf:RDF>
  </metadata>
  <defs
     id="defs33" />
  <sodipodi:namedview
     pagecolor="#ffffff"
     bordercolor="#666666"
     borderopacity="1"
     objecttolerance="10"
     gridtolerance="10"
     guidetolerance="10"
     inkscape:pageopacity="0"
     inkscape:pageshadow="2"
     inkscape:window-width="772"
     inkscape:window-height="480"
     id="namedview31"
     showgrid="false"
     inkscape:zoom="0.4609375"
     inkscape:cx="256"
     inkscape:cy="256"
     inkscape:window-x="72"
     inkscape:window-y="26"
     inkscape:window-maximized="0"
     inkscape:current-layer="Solid" />
  <path
     d="m24 240h464v32h-464z"
     id="path2"
     style="fill:#7e7e7e;fill-opacity:1" />
  <path
     d="m48 128h32v80h-32z"
     id="path4"
     style="fill:#7e7e7e;fill-opacity:1" />
  <path
     d="m112 80h32v128h-32z"
     id="path6"
     style="fill:#7e7e7e;fill-opacity:1" />
  <path
     d="m176 32h32v176h-32z"
     id="path8"
     style="fill:#7e7e7e;fill-opacity:1" />
  <path
     d="m240 160h32v48h-32z"
     id="path10"
     style="fill:#7e7e7e;fill-opacity:1" />
  <path
     d="m304 176h32v32h-32z"
     id="path12"
     style="fill:#7e7e7e;fill-opacity:1" />
  <path
     d="m368 96h32v112h-32z"
     id="path14"
     style="fill:#7e7e7e;fill-opacity:1" />
  <path
     d="m432 160h32v48h-32z"
     id="path16"
     style="fill:#7e7e7e;fill-opacity:1" />
  <path
     d="m48 304h32v64h-32z"
     id="path18"
     style="fill:#7e7e7e;fill-opacity:1" />
  <path
     d="m112 304h32v32h-32z"
     id="path20"
     style="fill:#7e7e7e;fill-opacity:1" />
  <path
     d="m240 304h32v128h-32z"
     id="path22"
     style="fill:#7e7e7e;fill-opacity:1" />
  <path
     d="m304 304h32v176h-32z"
     id="path24"
     style="fill:#7e7e7e;fill-opacity:1" />
  <path
     d="m368 304h32v48h-32z"
     id="path26"
     style="fill:#7e7e7e;fill-opacity:1" />
  <path
     d="m432 304h32v128h-32z"
     id="path28"
     style="fill:#7e7e7e;fill-opacity:1" />
</svg>
